<svg width="650" height="626" viewBox="0 0 650 626" fill="none" xmlns="http://www.w3.org/2000/svg">
  <path fill-rule="evenodd" clip-rule="evenodd" d="M10 312.9C10 145.606 150.822 10 324.55 10C392.653 10 455.703 30.8421 507.194 66.2647C480.164 81.6167 441.168 97.2422 403.479 112.344C362.716 128.678 323.482 144.398 302.57 158.498C246.588 196.252 208.338 316.705 208.338 316.705C225.944 309.406 240.189 296.122 248.135 279.33C311.922 144.618 500.247 177.984 401.599 208.088C300.644 238.895 347.599 281.321 350.72 284.016L350.847 283.961C350.439 281.185 347.669 250.473 423.494 242.077C526.641 230.637 541.376 146.304 539.929 92.1441C600.975 147.394 639.1 225.858 639.1 312.9C639.1 480.18 498.264 615.8 324.55 615.8C256.313 615.8 193.154 594.877 141.609 559.332C168.619 544.039 207.449 528.478 244.986 513.435C285.768 497.091 325.024 481.359 345.939 467.248C401.922 429.507 440.172 309.054 440.172 309.054C422.58 316.34 408.335 329.624 400.375 346.429C336.602 481.142 148.263 447.775 246.911 417.658C347.866 386.851 300.911 344.439 297.789 341.73L297.663 341.798C298.07 344.574 300.841 375.273 225.03 383.682C122.194 395.087 107.227 478.931 108.568 533.109C47.873 477.887 10 399.651 10 312.9ZM385.295 330.74C381.259 341.771 375.494 357.527 372.714 376.194C366.625 383.235 360.128 389.519 353.392 395.125C358.328 361.894 368.13 318.818 386.158 313.875C392.058 312.255 389.712 318.668 385.295 330.74ZM353.221 333.826C347.389 349.773 337.949 375.587 339.133 405.796C332.453 410.278 325.633 414.164 318.799 417.536C322.455 384.941 332.214 322.948 354.081 316.949C359.984 315.332 357.637 321.75 353.221 333.826ZM263.213 295.033C267.251 284.003 273.021 268.243 275.795 249.566C281.898 242.524 288.381 236.241 295.117 230.634C290.181 263.866 280.394 306.928 262.352 311.884C256.454 313.497 258.799 307.091 263.213 295.033ZM309.377 219.964C310.569 250.179 301.124 275.998 295.29 291.944C290.874 304.013 288.528 310.426 294.428 308.81C316.296 302.811 326.055 240.818 329.711 208.223C322.877 211.595 316.071 215.481 309.377 219.964Z" fill="#0A847E" />
</svg>
